<svg width="30" height="30" viewBox="0 0 30 30" fill="none" xmlns="http://www.w3.org/2000/svg">
<path d="M20.2248 3C24.2772 3 27 5.8344 27 10.0656V19.9224C27 20.1036 26.9676 20.2656 26.958 20.4408C26.952 20.5428 26.9532 20.6448 26.9448 20.7468C26.94 20.7924 26.9268 20.8344 26.922 20.88C26.8824 21.2568 26.8212 21.6168 26.736 21.966C26.7144 22.0596 26.6892 22.1496 26.664 22.2408C26.568 22.5792 26.4552 22.902 26.3196 23.2104C26.28 23.2968 26.2368 23.3796 26.196 23.4648C26.0496 23.7588 25.8912 24.0408 25.7076 24.3024L25.53 24.5328C25.3392 24.78 25.14 25.0164 24.9144 25.2312C24.8412 25.3008 24.7584 25.3608 24.6816 25.4268C24.45 25.626 24.2136 25.8168 23.9532 25.98C23.8596 26.0388 23.7564 26.082 23.6604 26.1348C23.3952 26.2812 23.1276 26.424 22.836 26.5344C22.716 26.58 22.5828 26.604 22.458 26.6436C22.1712 26.7324 21.888 26.8248 21.5796 26.8776C21.502 26.8912 21.4221 26.9008 21.3411 26.9083L20.8488 26.9436C20.64 26.9592 20.442 27 20.2248 27H9.7656C9.3144 27 8.8836 26.9544 8.4672 26.886C8.4516 26.8836 8.4372 26.8812 8.4228 26.8788C6.7992 26.5992 5.4516 25.8156 4.5072 24.6336C4.4964 24.6336 4.4964 24.6216 4.4856 24.6108C3.5364 23.4156 3 21.8088 3 19.9224V10.0656C3 5.8344 5.7252 3 9.7656 3H20.2248ZM20.2248 4.674H9.7656C6.6732 4.674 4.6752 6.7944 4.6752 10.0656V19.9224C4.6752 20.8404 4.8456 21.66 5.1372 22.3692C5.1744 22.3248 7.4988 19.4904 7.5096 19.4808C8.34 18.5328 9.8988 17.1192 11.9448 17.9748C12.4368 18.1788 12.8688 18.4656 13.2648 18.7176C13.9524 19.1772 14.3568 19.3932 14.7768 19.3572C14.9508 19.3332 15.114 19.2816 15.2688 19.1856C15.9384 18.7728 17.8308 16.0128 17.9448 15.8628C19.2528 14.1588 21.2688 13.7028 22.9488 14.7108C23.0616 14.778 23.5221 15.0939 24.0213 15.4497L24.3981 15.7208C24.7726 15.9928 25.1253 16.2579 25.326 16.428V10.0656C25.326 6.7944 23.328 4.674 20.2248 4.674ZM10.7751 7.79952C11.6123 7.79952 12.3705 8.15158 12.9135 8.71324C13.4589 9.25522 13.8007 10.0022 13.8007 10.8175C13.8007 12.4434 12.4403 13.7995 10.8065 13.7995C9.37049 13.7995 8.14607 12.7503 7.87165 11.3919C7.8263 11.1881 7.80072 10.9784 7.80072 10.7619C7.80072 9.12436 9.13095 7.79952 10.7751 7.79952Z" fill="black"/>
</svg>
