<svg width="21" height="21" viewBox="0 0 21 21" fill="none" xmlns="http://www.w3.org/2000/svg">
<path d="M6.5 6.46387V2.46387C6.5 1.36387 7.4 0.463867 8.5 0.463867H18.5C19.0304 0.463867 19.5391 0.674581 19.9142 1.04965C20.2893 1.42473 20.5 1.93343 20.5 2.46387V12.4639C20.5 12.9943 20.2893 13.503 19.9142 13.8781C19.5391 14.2532 19.0304 14.4639 18.5 14.4639H14.5V18.4639C14.5 18.9943 14.2893 19.503 13.9142 19.8781C13.5391 20.2532 13.0304 20.4639 12.5 20.4639H2.5C1.96957 20.4639 1.46086 20.2532 1.08579 19.8781C0.710714 19.503 0.5 18.9943 0.5 18.4639V8.46387C0.5 7.36387 1.4 6.46387 2.5 6.46387H6.5ZM8.5 6.46387H12.5C13.0304 6.46387 13.5391 6.67458 13.9142 7.04965C14.2893 7.42473 14.5 7.93343 14.5 8.46387V12.4639H18.5V2.46387H8.5V6.46387ZM2.5 8.46387V18.4639H12.5V8.46387H2.5Z" fill="black"/>
</svg>
